<svg width="46" height="46" viewBox="0 0 46 46" fill="none" xmlns="http://www.w3.org/2000/svg">
<path d="M46 13.2692H0V15.9231H46V13.2692Z" fill="#D7DCE4"/>
<path d="M46 23.8846H0V26.5385H46V23.8846Z" fill="#D7DCE4"/>
<path d="M46 18.5769H0V21.2308H46V18.5769Z" fill="#D7DCE4"/>
<path d="M46 29.1923H0V31.8462H46V29.1923Z" fill="#D7DCE4"/>
<path d="M46 2.65387H0V5.30772H46V2.65387Z" fill="#D7DCE4"/>
<path d="M46 34.5H0V37.1538H46V34.5Z" fill="#D7DCE4"/>
<path d="M46 7.96155H0V10.6154H46V7.96155Z" fill="#D7DCE4"/>
<circle cx="23" cy="43.3462" r="2.65385" fill="#D7DCE4"/>
<path d="M12.3846 26.5385L6.19232 20.4386L12.3846 14.1539" stroke="#26A797" stroke-width="2" stroke-miterlimit="10" stroke-linecap="round"/>
<path d="M33.6154 14.1539L39.8077 20.4386L33.6154 26.5385" stroke="#26A797" stroke-width="2" stroke-miterlimit="10" stroke-linecap="round"/>
<path d="M20.3461 28.3077L26.5384 12.3846" stroke="#26A797" stroke-width="2" stroke-miterlimit="10" stroke-linecap="round"/>
</svg>
