<svg width="16" height="16" viewBox="0 0 16 16" fill="none" xmlns="http://www.w3.org/2000/svg">
<path fill-rule="evenodd" clip-rule="evenodd" d="M8 16C12.4183 16 16 12.4183 16 8C16 3.58172 12.4183 0 8 0C3.58172 0 0 3.58172 0 8C0 12.4183 3.58172 16 8 16ZM5.55239 6.05242L3.60482 8L5.55239 9.94757L4.44753 11.0524L1.94753 8.55242L1.39511 8L1.94753 7.44757L4.44753 4.94757L5.55239 6.05242ZM12.3952 8.00001L10.4476 9.94759L11.5524 11.0524L14.0525 8.55244L14.6049 8.00001L14.0525 7.44759L11.5524 4.94759L10.4476 6.05244L12.3952 8.00001ZM7.24826 13.2245L10.2482 3.22453L8.75164 2.77555L5.75166 12.7755L7.24826 13.2245Z" fill="#4537DE"/>
</svg>
