<svg width="16" height="16" viewBox="0 0 16 16" fill="none" xmlns="http://www.w3.org/2000/svg">
<circle cx="8" cy="8" r="8" fill="#4537DE"/>
<path d="M3.5 4.68258V10.7057C3.5 10.8152 3.57301 10.8882 3.68252 10.8882C5.83623 10.8882 7.5154 11.4723 7.5154 11.9833V5.3579C6.82183 4.81034 5.23392 4.50006 3.68252 4.50006C3.57301 4.50006 3.5 4.57307 3.5 4.68258Z" fill="white"/>
<path d="M12.3329 4.49997C10.7815 4.49997 9.19357 4.81025 8.5 5.3578V11.9832C8.5 11.4722 10.1792 10.8881 12.3329 10.8881C12.4424 10.8881 12.5154 10.8151 12.5154 10.7056V4.68249C12.5154 4.57298 12.4424 4.49997 12.3329 4.49997Z" fill="white"/>
</svg>
