<svg width="16" height="16" viewBox="0 0 16 16" fill="none" xmlns="http://www.w3.org/2000/svg">
<circle cx="8" cy="8" r="8" fill="#4537DE"/>
<path fill-rule="evenodd" clip-rule="evenodd" d="M9.49223 8.5H6.50771C6.55422 9.99639 6.80684 11.3046 7.16555 12.2372C7.28159 12.5389 7.40223 12.7843 7.5195 12.9772C7.6776 12.9923 7.83786 13 7.99991 13C8.16201 13 8.3223 12.9923 8.48045 12.9772C8.59771 12.7843 8.71835 12.5389 8.83439 12.2372C9.1931 11.3046 9.44572 9.99639 9.49223 8.5ZM6.5077 7.5C6.55422 6.00361 6.80684 4.69543 7.16555 3.76278C7.28157 3.46111 7.4022 3.21578 7.51946 3.02282C7.67758 3.00774 7.83784 3.00003 7.99991 3.00003C8.16202 3.00003 8.32233 3.00775 8.48049 3.02283C8.59774 3.21579 8.71837 3.46112 8.83439 3.76278C9.1931 4.69543 9.44572 6.00361 9.49223 7.5H6.5077ZM5.50726 7.5H3.0246C3.21664 5.56594 4.51077 3.95608 6.27009 3.30734C5.83876 4.38251 5.55536 5.85576 5.50726 7.5ZM5.50726 8.5H3.0246C3.21662 10.4341 4.51077 12.044 6.27012 12.6927C5.83877 11.6176 5.55537 10.1443 5.50726 8.5ZM10.4927 8.5H12.9752C12.7832 10.4341 11.4891 12.0439 9.72984 12.6927C10.1612 11.6175 10.4446 10.1443 10.4927 8.5ZM12.9752 7.5H10.4927C10.4446 5.85578 10.1612 4.38255 9.72987 3.30739C11.4891 3.95617 12.7832 5.56598 12.9752 7.5Z" fill="white"/>
</svg>
